# xmcd
#
# Track frame offsets: 
#        150
#        13577
#        27110
#        44692
#        64343
#        80168
#        95121
#        113855
#        129188
#        144811
#        161249
#        176012
#        191306
#        204794
#        219271
#        233184
#        249556
#        265720
#        284323
#        297844
#        316712
#
# Disc length: 4429 seconds
#
# Revision: 0
# Processed by: cddbd v1.5.2PL0 Copyright (c) Steve Scherf et al.
# Submitted via: ExactAudioCopyFreeDBPlugin 1.0
#
DISCID=28114b15
DTITLE=Various Artist - Line Dance CD
DYEAR=1900
DGENRE=Folk
TTITLE0=The Bellamy Brothers - Get Into Reggae Cowboy
TTITLE1=Linedance Band - Charleston Fiddle
TTITLE2=Dan Seals - Bop
TTITLE3=Shania Twain - Any Man Of Mine
TTITLE4=Scooter Lee - Rock and Roll Waltz
TTITLE5=Southern Comp. - Boot Scooting Boogie
TTITLE6=Alan Jackson - Work In Progress
TTITLE7=The Bellamy Brothers - I Need More Of You
TTITLE8=Shania Twain - I'm Holding On To Love
TTITLE9=Rednex - Old Pop In An Oak
TTITLE10=Reba McEntire - Walk On
TTITLE11=Sammy Kershaw - Third Rate Romance
TTITLE12=Sorbas Dance - Szirtaki
TTITLE13=Dwight Yoakam - Four Corner
TTITLE14=Tracy Lawrence - Time Marches On
TTITLE15=Lacy J. Dalton - Black Coffee
TTITLE16=Blake Shelton - Some Beach
TTITLE17=Alan Jackson - Chattahoochee
TTITLE18=Ireen Sheer - Tennessee Waltz
TTITLE19=Alan Jackson - 1976
TTITLE20=Desert Rose Band - One Step Forward
EXTD=
EXTT0=
EXTT1=
EXTT2=
EXTT3=
EXTT4=
EXTT5=
EXTT6=
EXTT7=
EXTT8=
EXTT9=
EXTT10=
EXTT11=
EXTT12=
EXTT13=
EXTT14=
EXTT15=
EXTT16=
EXTT17=
EXTT18=
EXTT19=
EXTT20=
PLAYORDER=
